<svg width="55" height="54" viewBox="0 0 55 54" fill="none" xmlns="http://www.w3.org/2000/svg">
<rect x="1" y="0.5" width="53" height="53" rx="5.5" fill="white"/>
<rect x="1" y="0.5" width="53" height="53" rx="5.5" stroke="#F1F1F3"/>
<path fill-rule="evenodd" clip-rule="evenodd" d="M35 27C35 27.6213 34.4963 28.125 33.875 28.125H23.9181L27.1547 31.0641C27.6026 31.4947 27.6166 32.2069 27.1859 32.6547C26.7553 33.1026 26.0431 33.1166 25.5953 32.6859L20.3453 27.8109C20.1247 27.5988 20 27.306 20 27C20 26.694 20.1247 26.4012 20.3453 26.1891L25.5953 21.3141C26.0431 20.8834 26.7553 20.8974 27.1859 21.3453C27.6166 21.7931 27.6026 22.5053 27.1547 22.9359L23.9181 25.875L33.875 25.875C34.4963 25.875 35 26.3787 35 27Z" fill="#262626"/>
</svg>
