<svg width="55" height="54" viewBox="0 0 55 54" fill="none" xmlns="http://www.w3.org/2000/svg">
<rect x="1" y="0.5" width="53" height="53" rx="5.5" fill="white"/>
<rect x="1" y="0.5" width="53" height="53" rx="5.5" stroke="#F1F1F3"/>
<path fill-rule="evenodd" clip-rule="evenodd" d="M20 27C20 26.3787 20.5037 25.875 21.125 25.875H31.0819L27.8453 22.9359C27.3974 22.5053 27.3834 21.7931 27.8141 21.3453C28.2447 20.8974 28.9569 20.8834 29.4047 21.3141L34.6547 26.1891C34.8753 26.4012 35 26.694 35 27C35 27.306 34.8753 27.5988 34.6547 27.8109L29.4047 32.6859C28.9569 33.1166 28.2447 33.1026 27.8141 32.6547C27.3834 32.2069 27.3974 31.4947 27.8453 31.0641L31.0819 28.125H21.125C20.5037 28.125 20 27.6213 20 27Z" fill="#262626"/>
</svg>
